<svg width="16" height="16" viewBox="0 0 16 16" fill="none" xmlns="http://www.w3.org/2000/svg">
<path d="M12.9977 5.08199L7.99929 9.95387L3.00085 5.08199C2.91158 4.99504 2.79188 4.94639 2.66726 4.94639C2.54264 4.94639 2.42294 4.99504 2.33367 5.08199C2.2902 5.12423 2.25564 5.17475 2.23204 5.23057C2.20845 5.2864 2.19629 5.34639 2.19629 5.40699C2.19629 5.4676 2.20845 5.52759 2.23204 5.58341C2.25564 5.63924 2.2902 5.68976 2.33367 5.73199L7.65085 10.9148C7.74417 11.0055 7.86917 11.0562 7.99929 11.0562C8.12941 11.0562 8.25441 11.0055 8.34773 10.9148L13.6649 5.73199C13.7086 5.68974 13.7434 5.63912 13.7671 5.58315C13.7909 5.52718 13.8031 5.46701 13.8031 5.40621C13.8031 5.34542 13.7909 5.28524 13.7671 5.22927C13.7434 5.17331 13.7086 5.12269 13.6649 5.08043C13.5756 4.99348 13.4559 4.94482 13.3313 4.94482C13.2067 4.94482 13.087 4.99348 12.9977 5.08043V5.08199Z" fill="white"/>
</svg>
